<svg xmlns="http://www.w3.org/2000/svg" xmlns:xlink="http://www.w3.org/1999/xlink" fill="none" version="1.1" width="35" height="35" viewBox="0 0 35 35"><defs><linearGradient x1="-0.012662235647439957" y1="-0.038987260311841965" x2="0.7550426721572876" y2="1.0172595977783203" id="master_svg0_1_13512"><stop offset="0%" stop-color="#124CFF" stop-opacity="1"/><stop offset="100%" stop-color="#4393FF" stop-opacity="1"/></linearGradient><linearGradient x1="-0.012662235647439957" y1="-0.038987260311841965" x2="0.7550426721572876" y2="1.0172595977783203" id="master_svg1_1_13529"><stop offset="0%" stop-color="#124CFF" stop-opacity="1"/><stop offset="100%" stop-color="#4393FF" stop-opacity="1"/></linearGradient></defs><g style="mix-blend-mode:passthrough"><g style="mix-blend-mode:passthrough"><ellipse cx="17.5" cy="17.5" rx="17.5" ry="17.5" fill="#FFFFFF" fill-opacity="1"/></g><g style="mix-blend-mode:passthrough"><g style="mix-blend-mode:passthrough"><g style="mix-blend-mode:passthrough"><g style="mix-blend-mode:passthrough"><g style="opacity:0.3799999952316284;mix-blend-mode:passthrough"><path d="M25.520866030883788,5.8333330154418945C25.520866030883788,7.619903015441895,24.04896603088379,9.068213015441895,22.23336603088379,9.068213015441895L18.485386030883788,9.068213015441895L18.24079603088379,9.073823015441894C16.557086030883788,9.117863015441895,15.46911603088379,9.260963015441895,14.976866030883789,9.503153015441894C13.945486030883789,9.919973015441894,13.41138603088379,10.844223015441894,13.374546030883788,12.275903015441894L13.374536030883789,13.245693015441894C12.95137603088379,13.349853015441894,12.56845603088379,13.475113015441895,12.22576603088379,13.621503015441895C11.037836030883788,14.128933015441895,10.130783030883789,14.980693015441895,9.504590530883789,16.176733015441897C9.496044930883789,16.191433015441895,9.48757014088379,16.206633015441895,9.479166030883789,16.222533015441897L9.479266540883788,15.637633015441894C9.48258167088379,15.148323015441894,9.49365423088379,14.652563015441894,9.51248423088379,14.163543015441894L9.519048130883789,14.000803015441894L9.53245483088379,13.706553015441894C9.632950030883789,11.655383015441895,9.87306403088379,9.800193015441895,10.252798030883788,9.149763015441895C10.87898603088379,7.953673015441895,11.786046030883789,7.101913015441895,12.973966030883789,6.594480015441895C14.141756030883789,6.095649015441895,15.776756030883789,5.842006435441895,17.87895603088379,5.833551673441894L25.520866030883788,5.8333330154418945Z" fill-rule="evenodd" fill="url(#master_svg0_1_13512)" fill-opacity="1"/></g><g style="mix-blend-mode:passthrough"><path d="M9.754393726587296,29.16664739074707L9.754393726587296,23.684047390747068C9.772811126587296,20.965667390747072,10.030654726587295,18.04793739074707,10.527924726587296,17.19617739074707C11.154113726587296,16.00008739074707,12.061173726587295,15.14832739074707,13.249093726587295,14.64089439074707C14.437023726587295,14.133463390747071,16.108403726587294,13.879747390747076,18.263243726587298,13.879747390747076L23.493793726587295,13.87974739074707C23.493793726587295,15.66631739074707,22.045493726587296,17.11462739074707,20.258893726587296,17.11462739074707L18.760503726587295,17.11462739074707C16.937183726587296,17.15086739074707,15.767683726587295,17.29584739074707,15.251993726587296,17.54956739074707C14.220613726587295,17.96638739074707,13.686513726587295,18.89063739074707,13.649673726587295,20.32231739074707L13.649673726587295,22.43359739074707L13.649673726587295,25.27134739074707C13.649673726587295,27.42264739074707,11.905703726587296,29.16664739074707,9.754393726587296,29.16664739074707" fill-rule="evenodd" fill="url(#master_svg1_1_13529)" fill-opacity="1"/></g></g></g></g></g></g></svg>